<?xml version="1.0" encoding="UTF-8" standalone="no"?>
<svg width="141px" height="30px" viewBox="0 0 141 30" version="1.1" xmlns="http://www.w3.org/2000/svg" xmlns:xlink="http://www.w3.org/1999/xlink">
    <!-- Generator: Sketch 39 (31667) - http://www.bohemiancoding.com/sketch -->
    <title>locastic-logo</title>
    <desc>Created with Sketch.</desc>
    <defs></defs>
    <g id="Page-1" stroke="none" stroke-width="1" fill="none" fill-rule="evenodd">
        <g id="Desktop" transform="translate(-34.000000, -23.000000)" fill="#FFFFFF">
            <g id="locastic-logo" transform="translate(34.000000, 23.000000)">
                <path d="M116.010091,8.98573171 C115.922229,9.09219512 115.879966,9.22060976 115.879966,9.36109756 L115.879966,28.5629268 C115.879966,28.7089024 115.922229,28.8329268 116.010091,28.9487195 C116.100733,29.0496951 116.247541,29.1402439 116.458854,29.2132317 C116.671836,29.2812805 116.950993,29.3416463 117.300773,29.375122 C117.648884,29.4129878 118.095423,29.4305488 118.636497,29.4305488 C119.172011,29.4305488 119.615769,29.4129878 119.968885,29.375122 C120.319777,29.3416463 120.59671,29.2812805 120.809692,29.2132317 C121.021005,29.1402439 121.171149,29.0496951 121.259567,28.9487195 C121.345761,28.8329268 121.390248,28.7089024 121.390248,28.5629268 L121.390248,9.36109756 C121.390248,9.22060976 121.345761,9.09219512 121.259567,8.98573171 C121.171149,8.87871951 121.021005,8.78926829 120.809692,8.70310976 C120.59671,8.62628049 120.319777,8.56262195 119.968885,8.51871951 C119.615769,8.4770122 119.172011,8.45615854 118.636497,8.45615854 C118.095423,8.45615854 117.648884,8.4770122 117.300773,8.51871951 C116.950993,8.56262195 116.671836,8.62628049 116.458854,8.70310976 C116.247541,8.78926829 116.100733,8.87871951 116.010091,8.98573171 L116.010091,8.98573171 L116.010091,8.98573171 Z M15.428122,28.0459756 C15.4631556,27.747439 15.4831748,26.7552439 15.4831748,26.3239024 C15.4831748,25.892561 15.4631556,25.5281707 15.428122,25.2329268 C15.3919763,24.9387805 15.3346991,24.6995122 15.2635198,24.520061 C15.1912283,24.3444512 15.0978054,24.2116463 14.9882559,24.1309756 C14.8814869,24.0525 14.7552548,24.0162805 14.6073353,24.0162805 L5.87841256,24.0162805 L5.87841256,4.29640244 C5.87841256,4.15152439 5.83170111,4.01817073 5.73660997,3.90402439 C5.64096272,3.79262195 5.48358966,3.69878049 5.26449075,3.62085366 C5.05095273,3.55335366 4.75789404,3.4929878 4.39254381,3.45018293 C4.02886187,3.41231707 3.56285963,3.38597561 2.99175666,3.38597561 C2.43678023,3.38597561 1.86678942,3.41231707 1.49643441,3.45018293 C1.12607941,3.4929878 0.831352452,3.55335366 0.611141368,3.62085366 C0.393154638,3.69878049 0.236893742,3.79262195 0.139022149,3.90402439 C0.0467114421,4.01817073 0,4.15152439 0,4.29640244 L0,27.5372561 C0,28.1694512 0.162933959,28.6271341 0.492694496,28.9059146 C0.818562413,29.1879878 1.22450709,29.327378 1.70441155,29.327378 L14.6073353,29.327378 C14.7552548,29.327378 14.8814869,29.2812805 14.9882559,29.1956707 C15.0978054,29.1095122 15.1912283,28.9745122 15.2635198,28.7769512 C15.3346991,28.584878 15.3919763,28.3362805 15.428122,28.0459756 L15.428122,28.0459756 L15.428122,28.0459756 Z M32.0379322,18.9620122 C32.0379322,19.9838415 31.9428411,20.8942683 31.7537711,21.69 C31.565813,22.4934146 31.2738666,23.1739024 30.880712,23.7331098 C30.4886694,24.2972561 29.9831848,24.7214634 29.3709313,25.015061 C28.7603461,25.3097561 28.0374309,25.4595732 27.2060784,25.4595732 C26.3029907,25.4595732 25.5450417,25.2976829 24.9327884,24.9733537 C24.3205348,24.6523171 23.8350694,24.1984756 23.4797288,23.6052439 C23.1199395,23.0147561 22.8619144,22.3183537 22.7017609,21.5231707 C22.5449439,20.7235976 22.4626428,19.8515854 22.4626428,18.8978049 C22.4626428,17.877622 22.5599583,16.9660976 22.7568136,16.1720122 C22.9525568,15.3713415 23.248952,14.6881098 23.644331,14.1190244 C24.0352613,13.5510366 24.5401898,13.1202439 25.1491068,12.8282927 C25.7635846,12.5335976 26.4787146,12.3843293 27.2944965,12.3843293 C28.2103746,12.3843293 28.9733281,12.5511585 29.5783524,12.8793293 C30.1822648,13.2091463 30.6705105,13.6712195 31.0308558,14.265 C31.3945379,14.8510976 31.6542311,15.5431098 31.8093799,16.3415854 C31.9617481,17.1373171 32.0379322,18.0186585 32.0379322,18.9620122 L32.0379322,18.9620122 L32.0379322,18.9620122 Z M37.0466222,23.2370122 C37.4853763,21.8820732 37.7028069,20.3860976 37.7028069,18.7534756 C37.7028069,17.0352439 37.4981661,15.5173171 37.0911095,14.1958537 C36.6807159,12.8710976 36.0578967,11.7598171 35.2204272,10.8482927 C34.3801774,9.94280488 33.322497,9.25847561 32.0379322,8.79365854 C30.7572603,8.32445122 29.2391384,8.09286585 27.4896837,8.09286585 C25.6957419,8.09286585 24.1320207,8.35792683 22.8035251,8.88804878 C21.466132,9.41707317 20.3545109,10.1738415 19.4686618,11.1440854 C18.5783639,12.114878 17.9088332,13.2821341 17.467855,14.6365244 C17.022428,16.0013415 16.7999926,17.4967683 16.7999926,19.1381707 C16.7999926,20.835 17.0046332,22.3441463 17.4094657,23.6683537 C17.8187469,24.9942073 18.4476831,26.1054878 19.2929378,27.0120732 C20.1381924,27.917561 21.2003216,28.610122 22.4815498,29.0848171 C23.7666705,29.5589634 25.2742268,29.7938415 27.008111,29.7938415 C28.8020527,29.7938415 30.3713347,29.5293293 31.70984,28.9992073 C33.0489013,28.4641463 34.1677515,27.7084756 35.0569372,26.7338415 C35.9461229,25.7553659 36.6089807,24.5881098 37.0466222,23.2370122 L37.0466222,23.2370122 L37.0466222,23.2370122 Z M56.4557825,26.4391463 C56.4774701,26.19 56.4885919,25.8793902 56.4885919,25.5034756 C56.4885919,25.0287805 56.4741335,24.6440854 56.4441047,24.3389634 C56.4163003,24.0365854 56.376262,23.7890854 56.3245458,23.592622 C56.2739416,23.4005488 56.2055428,23.2666463 56.1182369,23.1991463 C56.0292627,23.1223171 55.9213814,23.0828049 55.7879202,23.0828049 C55.5994062,23.0828049 55.3647368,23.1991463 55.0889169,23.4208537 C54.8125407,23.6436585 54.4688781,23.8867683 54.0623773,24.1644512 C53.6542082,24.4393902 53.1759721,24.6868902 52.6298929,24.9080488 C52.0821457,25.1352439 51.430966,25.2422561 50.6724612,25.2422561 C49.9300829,25.2422561 49.2738985,25.1138415 48.7178097,24.8482317 C48.1550482,24.5804268 47.6912703,24.1770732 47.3170226,23.6475 C46.9466676,23.1129878 46.6641746,22.450061 46.4756605,21.6647561 C46.2854781,20.8684756 46.1903872,19.9580488 46.1903872,18.9241463 C46.1903872,16.8206707 46.5690834,15.2308537 47.3248079,14.1448171 C48.0833127,13.054939 49.1793634,12.5116463 50.6079549,12.5116463 C51.336987,12.5116463 51.9592501,12.6148171 52.4903148,12.8162195 C53.013038,13.0203659 53.4634699,13.2393293 53.8432783,13.4818902 C54.2219747,13.7315854 54.5500669,13.9527439 54.8275552,14.1530488 C55.1022629,14.3544512 55.3647368,14.457622 55.6121963,14.457622 C55.8485337,14.457622 56.0370478,14.2869512 56.1827432,13.9483537 C56.3289944,13.6108537 56.4001738,13.0203659 56.4001738,12.1917073 C56.4001738,11.8284146 56.3884959,11.5243902 56.3695889,11.2725 C56.3467893,11.0206098 56.3184288,10.8060366 56.2800585,10.6353659 C56.245025,10.4635976 56.1921966,10.3242073 56.1276903,10.2117073 C56.0626279,10.1046951 55.9480738,9.97353659 55.7879202,9.81439024 C55.630547,9.65689024 55.354171,9.46920732 54.9671333,9.25518293 C54.5817641,9.04115854 54.1441223,8.84414634 53.6569887,8.66963415 C53.1687429,8.49841463 52.6454636,8.36231707 52.0821457,8.26353659 C51.5210524,8.16530488 50.9493933,8.11042683 50.3666125,8.11042683 C48.9374648,8.11042683 47.6256518,8.33597561 46.4339539,8.77609756 C45.2361391,9.22554878 44.2001461,9.91317073 43.3265308,10.832378 C42.4529157,11.7521341 41.7722631,12.9144512 41.281237,14.3160366 C40.7952155,15.7181707 40.5516488,17.3853659 40.5516488,19.3126829 C40.5516488,20.9793293 40.7501724,22.4632317 41.1500001,23.7583537 C41.5498277,25.0496341 42.147067,26.1488415 42.9311517,27.0466463 C43.7213537,27.9444512 44.6922844,28.6227439 45.8506169,29.0848171 C47.0122861,29.5457927 48.3385575,29.7762805 49.842777,29.7762805 C50.5123076,29.7762805 51.1651556,29.7181098 51.7985407,29.6023171 C52.4330377,29.4909146 53.0202672,29.3367073 53.559117,29.1495732 C54.0985231,28.9613415 54.5795396,28.7517073 55.0021669,28.5151829 C55.4253503,28.2770122 55.7245262,28.0756098 55.8991379,27.9043902 C56.0737497,27.7435976 56.1849674,27.6064024 56.2355716,27.4988415 C56.2878439,27.392378 56.3317747,27.2507927 56.3695889,27.080122 C56.4051785,26.905061 56.433539,26.6943293 56.4557825,26.4391463 L56.4557825,26.4391463 L56.4557825,26.4391463 Z M71.899475,23.6683537 C71.22772,24.417439 70.5670869,24.984878 69.9192437,25.3706707 C69.2719566,25.7635976 68.5618313,25.955122 67.7888683,25.955122 C66.8724341,25.955122 66.1545237,25.730122 65.634581,25.2636585 C65.1179745,24.8054268 64.8593934,24.1693902 64.8593934,23.3659756 C64.8593934,22.8907317 64.950592,22.4764024 65.1341013,22.1087195 C65.3126056,21.7410366 65.6017717,21.4243902 65.9965946,21.1637195 C66.3869689,20.9030488 66.8996826,20.7120732 67.5258382,20.5831098 C68.151994,20.4546951 68.9099428,20.3860976 69.8002407,20.3860976 L71.899475,20.3860976 L71.899475,23.6683537 L71.899475,23.6683537 L71.899475,23.6683537 Z M77.0827768,29.1056707 C77.2262477,28.9915244 77.3002074,28.8329268 77.3002074,28.6309756 L77.3002074,15.6835976 C77.3002074,14.3632317 77.139498,13.217378 76.8214153,12.2559146 C76.4972156,11.290061 75.9867263,10.5036585 75.2860547,9.89286585 C74.5881634,9.27987805 73.6939729,8.82878049 72.6096001,8.53189024 C71.5257836,8.24158537 70.2173071,8.09286585 68.6863951,8.09286585 C67.8233457,8.09286585 66.9897688,8.15597561 66.1801039,8.29371951 C65.3709948,8.43530488 64.6263923,8.60926829 63.940735,8.82384146 C63.2578582,9.04115854 62.6583947,9.27219512 62.1462371,9.53012195 C61.6385284,9.77707317 61.278739,10.007561 61.077991,10.2117073 C60.8727944,10.4257317 60.7343282,10.6606098 60.6631488,10.9179878 C60.5869647,11.1742683 60.551375,11.529878 60.551375,11.9765854 C60.551375,12.3075 60.5741746,12.6065854 60.6192179,12.8793293 C60.6631488,13.1542683 60.7226503,13.3798171 60.8010589,13.5675 C60.8844722,13.7562805 60.9845682,13.9055488 61.1096882,14.0043293 C61.2325837,14.1075 61.3760544,14.1530488 61.5339835,14.1530488 C61.7703212,14.1530488 62.0711652,14.0509756 62.445413,13.8506707 C62.8157679,13.6487195 63.2767652,13.4270122 63.8311856,13.1795122 C64.385606,12.9358537 65.0228836,12.7125 65.7435743,12.5116463 C66.4664894,12.3113415 67.2844957,12.212561 68.2031541,12.212561 C68.9032697,12.212561 69.4916114,12.2811585 69.9637307,12.4227439 C70.4375183,12.5720122 70.8151022,12.789878 71.1020441,13.0977439 C71.3856491,13.4006707 71.5891777,13.7727439 71.7115171,14.2254878 C71.8383054,14.6793293 71.899475,15.21 71.899475,15.8120122 L71.899475,16.9792683 L69.9970959,16.9792683 C68.2626556,16.9792683 66.7389729,17.1071341 65.4282722,17.3678049 C64.115347,17.6290244 63.0187402,18.0214024 62.1378959,18.5646951 C61.2553833,19.1079878 60.5919694,19.787378 60.1459864,20.6160366 C59.7022279,21.4425 59.4803484,22.4171341 59.4803484,23.5360976 C59.4803484,24.5754878 59.6560723,25.4815244 60.0041838,26.2596951 C60.3539637,27.0367683 60.8472142,27.6870732 61.4800432,28.2122561 C62.1150963,28.7385366 62.8641475,29.1309146 63.7316458,29.397622 C64.6013683,29.6621341 65.5511677,29.7938415 66.5866047,29.7938415 C67.8389161,29.7938415 68.9822343,29.5589634 70.0059934,29.0848171 C71.0347573,28.610122 71.9506351,27.9471951 72.7514027,27.0971341 L72.7514027,28.6309756 C72.7514027,28.8329268 72.8136848,28.9915244 72.9371364,29.1056707 C73.0605881,29.2209146 73.273014,29.3015854 73.5738579,29.3537195 C73.8708091,29.4053049 74.3479331,29.4305488 75.0046739,29.4305488 C75.6169272,29.4305488 76.0795931,29.4053049 76.3910027,29.3537195 C76.7063048,29.3015854 76.9343013,29.2209146 77.0827768,29.1056707 L77.0827768,29.1056707 L77.0827768,29.1056707 Z M95.5126652,26.0237195 C95.9263952,25.1862805 96.1360405,24.219878 96.1360405,23.1256098 C96.1360405,22.2546951 95.9953501,21.4940854 95.7211983,20.8564024 C95.4409297,20.2159756 95.0778039,19.6633537 94.6245917,19.2012805 C94.1724917,18.7403049 93.6603341,18.3517683 93.0836703,18.0395122 C92.5070064,17.7228659 91.9247816,17.4413415 91.331991,17.2064634 C90.7414251,16.9660976 90.1603123,16.752622 89.5869851,16.5468293 C89.0075407,16.3470732 88.4953831,16.1325 88.042727,15.9014634 C87.5928515,15.6709756 87.2269451,15.4015244 86.9516813,15.1035366 C86.6725247,14.7989634 86.5373952,14.427439 86.5373952,13.9834756 C86.5373952,13.6915244 86.5924481,13.4231707 86.712007,13.1745732 C86.8271174,12.9182927 87.0028414,12.699878 87.2358424,12.5116463 C87.4688437,12.3283537 87.7669071,12.1840244 88.1311451,12.0846951 C88.4953831,11.9820732 88.9246835,11.9310366 89.4207146,11.9310366 C90.1197179,11.9310366 90.7414251,12.0073171 91.2902843,12.1615244 C91.8346952,12.3113415 92.3184923,12.4704878 92.7327782,12.640061 C93.1498446,12.8162195 93.496288,12.9742683 93.7704396,13.1268293 C94.050152,13.2821341 94.2520123,13.3534756 94.3832493,13.3534756 C94.5033642,13.3534756 94.6029041,13.3282317 94.6913222,13.2821341 C94.7797403,13.23 94.8475832,13.1312195 94.9004116,12.9901829 C94.9510156,12.8414634 94.9871614,12.649939 95.0082929,12.4002439 C95.0310925,12.1615244 95.0427703,11.8404878 95.0427703,11.4563415 C95.0427703,11.1232317 95.0310925,10.8482927 95.0082929,10.6221951 C94.9871614,10.4010366 94.9599131,10.2117073 94.9309965,10.0679268 C94.90208,9.91317073 94.8581488,9.7820122 94.8014279,9.67390244 C94.7419264,9.5679878 94.6429427,9.45932927 94.5050326,9.34902439 C94.3654544,9.24695122 94.1363459,9.11414634 93.8177071,8.96432927 C93.496288,8.81067073 93.1036893,8.66963415 92.6354628,8.54176829 C92.1700166,8.41280488 91.6484054,8.3052439 91.0745221,8.22073171 C90.4956337,8.13128049 89.9017311,8.09286585 89.291702,8.09286585 C88.0671949,8.09286585 86.9628031,8.24158537 85.9757456,8.54176829 C84.9909129,8.84414634 84.1590043,9.27219512 83.4733471,9.81439024 C82.7893581,10.362622 82.2627421,11.0206098 81.8990602,11.7943902 C81.5364905,12.5593902 81.3546496,13.4006707 81.3546496,14.3237195 C81.3546496,15.2308537 81.4858863,16.0084756 81.7572576,16.6587805 C82.0297411,17.3035976 82.3834134,17.860061 82.8293964,18.3171951 C83.2725991,18.7781707 83.7758592,19.1689024 84.3363966,19.4844512 C84.9002703,19.7967073 85.4752659,20.0782317 86.0647198,20.322439 C86.6541738,20.5704878 87.2336182,20.7927439 87.7919311,20.9925 C88.3535805,21.1939024 88.8562847,21.4123171 89.3005993,21.6428049 C89.7460265,21.8727439 90.1030353,22.1421951 90.3721821,22.450061 C90.6441095,22.7590244 90.7775706,23.1256098 90.7775706,23.5613415 C90.7775706,23.935061 90.703611,24.2681707 90.56014,24.5529878 C90.4116645,24.8432927 90.1953459,25.0803659 89.9122968,25.2636585 C89.6286918,25.4513415 89.2933704,25.5973171 88.9080009,25.6955488 C88.5220755,25.7970732 88.0777606,25.8492073 87.5856222,25.8492073 C86.7976447,25.8492073 86.0936364,25.7553659 85.4752659,25.5709756 C84.8557834,25.3827439 84.3124847,25.1813415 83.8437021,24.9640244 C83.3788121,24.75 82.9906622,24.5496951 82.6753599,24.3696951 C82.3606138,24.1902439 82.1253884,24.1002439 81.966347,24.1002439 C81.8356662,24.1002439 81.7266727,24.1265854 81.6382546,24.1726829 C81.5520609,24.2248171 81.4753207,24.3235976 81.4180436,24.4767073 C81.3585421,24.6309146 81.3185038,24.8279268 81.2873628,25.0847561 C81.2612265,25.3322561 81.2434316,25.6692073 81.2434316,26.0835366 C81.2434316,26.7168293 81.2873628,27.1953659 81.3741125,27.5235366 C81.4625306,27.845122 81.5870945,28.0805488 81.746692,28.2303659 C81.9035089,28.3834756 82.1615339,28.5459146 82.5118699,28.7215244 C82.8616497,28.8878049 83.2992913,29.060122 83.8225706,29.2264024 C84.3519669,29.3882927 84.9425331,29.5293293 85.6053906,29.6368902 C86.2710287,29.7428049 86.9650273,29.7938415 87.6946155,29.7938415 C88.9057767,29.7938415 90.0251828,29.6577439 91.0639564,29.375122 C92.0943886,29.0979878 92.9919155,28.6737805 93.7493083,28.1107317 C94.507257,27.5504268 95.0972668,26.8529268 95.5126652,26.0237195 L95.5126652,26.0237195 L95.5126652,26.0237195 Z M106.797927,22.0280488 L106.797927,12.9901829 L111.062015,12.9901829 C111.336166,12.9901829 111.548036,12.8189634 111.694287,12.4781707 C111.840539,12.140122 111.914498,11.5803659 111.914498,10.7851829 C111.914498,10.3703049 111.89726,10.0190854 111.859445,9.72932927 C111.822744,9.44396341 111.768803,9.21676829 111.694287,9.0504878 C111.620884,8.88365854 111.533022,8.76841463 111.421248,8.69542683 C111.313367,8.62243902 111.184354,8.58786585 111.039771,8.58786585 L106.797927,8.58786585 L106.797927,4.2920122 C106.797927,4.15152439 106.75344,4.01817073 106.66669,3.90402439 C106.579384,3.78713415 106.432021,3.69439024 106.227936,3.61646341 C106.027188,3.53579268 105.743583,3.47487805 105.389911,3.4425 C105.028453,3.40792683 104.57969,3.38597561 104.044176,3.38597561 C103.517561,3.38597561 103.078807,3.40792683 102.719573,3.4425 C102.362008,3.47487805 102.077847,3.53579268 101.865977,3.61646341 C101.656888,3.69439024 101.510637,3.78713415 101.431672,3.90402439 C101.349371,4.01817073 101.308777,4.15152439 101.308777,4.2920122 L101.308777,8.58786585 L98.989331,8.58786585 C98.8475284,8.58786585 98.7185159,8.62243902 98.6106348,8.69542683 C98.4994169,8.76841463 98.4087746,8.88365854 98.3348147,9.0504878 C98.2619672,9.21676829 98.2108069,9.44396341 98.172993,9.72932927 C98.1335108,10.0190854 98.1151599,10.3703049 98.1151599,10.7851829 C98.1151599,11.5803659 98.1885634,12.140122 98.3348147,12.4781707 C98.4810662,12.8189634 98.694604,12.9901829 98.969312,12.9901829 L101.308777,12.9901829 L101.308777,22.8490244 C101.308777,24.0283537 101.431672,25.0496341 101.681912,25.907378 C101.930484,26.7771951 102.315297,27.495 102.840245,28.0585976 C103.365748,28.6271341 104.025269,29.0469512 104.828817,29.3191463 C105.629029,29.5979268 106.579384,29.735122 107.671542,29.735122 C108.080267,29.735122 108.483432,29.709878 108.884372,29.6654268 C109.286424,29.6187805 109.659003,29.5639024 110.000997,29.4782927 C110.342436,29.4053049 110.640499,29.3114634 110.898525,29.2055488 C111.152101,29.0979878 111.344508,28.9745122 111.4763,28.8329268 C111.607537,28.7012195 111.713194,28.4603049 111.793827,28.1217073 C111.873904,27.7891463 111.914498,27.302378 111.914498,26.6641463 C111.914498,26.2684756 111.89726,25.9342683 111.859445,25.6746951 C111.822744,25.4173171 111.783817,25.2115244 111.742111,25.0628049 C111.694287,24.9080488 111.632561,24.8103659 111.552485,24.7593293 C111.472964,24.7077439 111.387326,24.6868902 111.300576,24.6868902 C111.20048,24.6868902 111.084814,24.7077439 110.962475,24.7593293 C110.839023,24.8103659 110.684986,24.8657927 110.504814,24.9289024 C110.320748,24.9942073 110.111659,25.0540244 109.880882,25.1006707 C109.645657,25.1517073 109.385964,25.1813415 109.092905,25.1813415 C108.232636,25.1813415 107.635953,24.9168293 107.301187,24.394939 C106.966422,23.8653659 106.797927,23.0778659 106.797927,22.0280488 L106.797927,22.0280488 L106.797927,22.0280488 Z M121.126662,5.07128049 C121.576538,4.6520122 121.804534,3.89853659 121.804534,2.80097561 C121.804534,1.74786585 121.585991,1.02128049 121.149462,0.611890244 C120.710708,0.204146341 119.882136,0 118.653736,0 C117.415883,0 116.576189,0.209634146 116.12965,0.637682927 C115.684779,1.06079268 115.46568,1.8170122 115.46568,2.91182927 C115.46568,3.96164634 115.680886,4.69042683 116.110187,5.09213415 C116.538375,5.49329268 117.371952,5.69359756 118.609249,5.69359756 C119.833756,5.69359756 120.675674,5.48506098 121.126662,5.07128049 L121.126662,5.07128049 L121.126662,5.07128049 Z M130.884349,21.6647561 C130.696391,20.8684756 130.602968,19.9580488 130.602968,18.9241463 C130.602968,16.8206707 130.979996,15.2308537 131.737945,14.1448171 C132.497006,13.054939 133.591388,12.5116463 135.021648,12.5116463 C135.748455,12.5116463 136.37628,12.6148171 136.899559,12.8162195 C137.422838,13.0203659 137.874938,13.2393293 138.254747,13.4818902 C138.634555,13.7315854 138.961535,13.9527439 139.241804,14.1530488 C139.515956,14.3544512 139.780098,14.457622 140.026445,14.457622 C140.259446,14.457622 140.44796,14.2869512 140.594212,13.9483537 C140.739907,13.6108537 140.813867,13.0203659 140.813867,12.1917073 C140.813867,11.8284146 140.805525,11.5243902 140.78217,11.2725 C140.761038,11.0206098 140.726561,10.8060366 140.688747,10.6353659 C140.656493,10.4635976 140.602553,10.3242073 140.540271,10.2117073 C140.475209,10.1046951 140.36121,9.97353659 140.199945,9.81439024 C140.04146,9.65689024 139.767308,9.46920732 139.380826,9.25518293 C138.994901,9.04115854 138.560595,8.84414634 138.070126,8.66963415 C137.582992,8.49841463 137.054708,8.36231707 136.495282,8.26353659 C135.934745,8.16530488 135.36253,8.11042683 134.775856,8.11042683 C133.350602,8.11042683 132.038233,8.33597561 130.842642,8.77609756 C129.647608,9.22554878 128.611615,9.91317073 127.740224,10.832378 C126.864384,11.7521341 126.183175,12.9144512 125.693818,14.3160366 C125.205572,15.7181707 124.964229,17.3853659 124.964229,19.3126829 C124.964229,20.9793293 125.162753,22.4632317 125.562025,23.7583537 C125.967413,25.0496341 126.557979,26.1488415 127.345401,27.0466463 C128.129486,27.9444512 129.10709,28.6227439 130.262085,29.0848171 C131.424311,29.5457927 132.755031,29.7762805 134.25647,29.7762805 C134.924888,29.7762805 135.577736,29.7181098 136.211677,29.6023171 C136.844506,29.4909146 137.431736,29.3367073 137.972254,29.1495732 C138.509435,28.9613415 138.993233,28.7517073 139.414748,28.5151829 C139.835707,28.2770122 140.134882,28.0756098 140.31005,27.9043902 C140.48355,27.7435976 140.597548,27.6064024 140.646484,27.4988415 C140.699868,27.392378 140.742131,27.2507927 140.78217,27.080122 C140.813867,26.905061 140.847232,26.6943293 140.867251,26.4391463 C140.892275,26.19 140.899504,25.8793902 140.899504,25.5034756 C140.899504,25.0287805 140.886158,24.6440854 140.85891,24.3389634 C140.8261,24.0365854 140.786618,23.7890854 140.73657,23.592622 C140.684298,23.4005488 140.616455,23.2666463 140.527481,23.1991463 C140.441287,23.1223171 140.332294,23.0828049 140.199945,23.0828049 C140.011987,23.0828049 139.780098,23.1991463 139.500941,23.4208537 C139.222897,23.6436585 138.879234,23.8867683 138.47607,24.1644512 C138.065677,24.4393902 137.588553,24.6868902 137.044142,24.9080488 C136.495282,25.1352439 135.841322,25.2422561 135.085598,25.2422561 C134.340995,25.2422561 133.691484,25.1138415 133.129278,24.8482317 C132.565961,24.5804268 132.100514,24.1770732 131.729603,23.6475 C131.357024,23.1129878 131.075643,22.450061 130.884349,21.6647561 L130.884349,21.6647561 L130.884349,21.6647561 Z" id="Imported-Layers"></path>
            </g>
        </g>
    </g>
</svg>